#!OML:ASF F:\VICON\USERDATA\INSTALL\rory3\rory3.ASF
:FULLY-SPECIFIED
:DEGREES
296
root -3.03957 18.0622 16.6852 396.428 -69.3505 339.59
lowerback 5.97658 5.6359 9.95106
upperback -7.47429 9.05344 6.40379
thorax -11.0535 3.73041 0.141334
lowerneck -8.94978 -10.8436 -11.9832
upperneck 25.4631 -16.4248 9.79278
head 11.5997 -7.7695 3.25597
rclavicle 3.24019e-014 7.95139e-015
rhumerus 260.141 -105.435 11.0026
rradius 5.64239
rwrist 72.1741
rhand -10.7756 15.4488
rfingers 7.12502
rthumb 15.2367 -13.9701
lclavicle 3.24019e-014 7.95139e-015
lhumerus 15.0861 -2.47102 37.9556
lradius 32.6865
lwrist -4.10596
lhand 0.764282 16.7069
lfingers 7.12502
lthumb 26.3222 44.9004
rfemur -44.4001 25.0281 -2.0774
rtibia 23.2191
rfoot -71.5819 -0.385501
rtoes 62.9006
lfemur -45.0056 -18.8262 -1.81547
ltibia 29.7663
lfoot 3.92662 15.1056
ltoes -27.2014
297
root -3.16927 17.9399 16.8514 401.337 -71.9337 335.269
lowerback 4.85213 5.92551 10.5378
upperback -7.46517 9.2682 6.24377
thorax -10.2358 3.81477 -0.238451
lowerneck -9.17534 -10.4721 -11.8116
upperneck 25.6827 -15.9108 9.69052
head 11.6339 -7.53162 3.26855
rclavicle 3.47873e-015 4.29375e-014
rhumerus 246.479 -104.66 25.0733
rradius 5.72891
rwrist 67.0882
rhand -8.67582 15.0647
rfingers 7.12502
rthumb 17.2585 -14.189
lclavicle 3.47873e-015 4.29375e-014
lhumerus 13.4627 -2.51871 38.5083
lradius 33.4132
lwrist -3.72888
lhand 2.32283 16.1389
lfingers 7.12502
lthumb 27.8133 44.1005
rfemur -42.7717 25.1335 -2.163
rtibia 21.7089
rfoot -73.6568 1.52434
rtoes 62.2346
lfemur -46.4308 -17.3316 -1.84902
ltibia 30.4579
lfoot 6.04793 13.7168
ltoes -22.9896
298
root -3.30104 17.8037 17.0032 408.731 -74.3915 328.531
lowerback 3.81767 6.33126 11.0267
upperback -7.59888 9.65297 6.23753
thorax -9.66992 3.97885 -0.41752
lowerneck -9.07166 -10.1497 -11.9879
upperneck 25.7782 -15.3968 9.51108
head 11.5813 -7.34927 3.32283
rclavicle -4.63665e-014 1.59028e-014
rhumerus 231.386 -104.638 40.7494
rradius 6.07288
rwrist 62.1076
rhand -6.62121 14.5002
rfingers 7.12502
rthumb 19.2351 -14.5686
lclavicle -4.63665e-014 1.59028e-014
lhumerus 11.6522 -3.48822 38.7935
lradius 34.5784
lwrist -2.71154
lhand 3.53976 16.2211
lfingers 7.12502
lthumb 28.9762 43.9889
rfemur -41.668 25.4666 -2.17555
rtibia 20.3949
rfoot -75.3004 3.37122
rtoes 59.565
lfemur -47.6954 -14.8007 -2.22576
ltibia 31.461
lfoot 8.60549 11.8525
ltoes -23.3548
299
root -3.44948 17.6722 17.1598 417.686 -76.6611 319.918
lowerback 2.76391 6.67451 11.4184
upperback -7.54016 9.90853 6.19634
thorax -8.88996 4.1082 -0.548966
lowerneck -9.05536 -9.83304 -12.2069
upperneck 25.8481 -14.925 9.5196
head 11.5628 -7.16674 3.43994
rclavicle 4.57205e-015 7.95139e-015
rhumerus 217.647 -105.845 54.771
rradius 6.56097
rwrist 57.0123
rhand -5.13178 13.6744
rfingers 7.12502
rthumb 20.6668 -15.2453
lclavicle 4.57205e-015 7.95139e-015
lhumerus 10.0078 -3.27632 39.4166
lradius 34.9296
lwrist -3.25915
lhand 5.04007 15.3379
lfingers 7.12502
lthumb 30.4082 42.8505
rfemur -39.9007 24.0251 -1.07876
rtibia 19.3108
rfoot -74.5339 4.82756
rtoes 55.6358
lfemur -48.5154 -12.5026 -3.04203
ltibia 32.8259
lfoot 10.6277 10.6038
ltoes -1.12823
300
root -3.5969 17.5366 17.3195 426.664 -79.4252 311.036
lowerback 1.8984 6.83283 10.837
upperback -7.34759 9.88759 5.95766
thorax -8.19888 4.17667 -0.384696
lowerneck -8.90168 -9.43232 -12.3441
upperneck 25.7765 -14.3095 9.42049
head 11.4253 -6.92953 3.53421
rclavicle 3.37934e-015 3.49861e-014
rhumerus 206.174 -108.126 66.4064
rradius 7.03981
rwrist 51.8678
rhand -4.08177 12.8806
rfingers 7.12502
rthumb 21.6754 -15.926
lclavicle 3.37934e-015 3.49861e-014
lhumerus 8.23645 -2.94908 39.8237
lradius 35.2617
lwrist -4.26568
lhand 6.51836 14.5025
lfingers 7.12502
lthumb 31.8171 41.7449
rfemur -37.8583 20.3457 -0.0643128
rtibia 18.7366
rfoot -72.2465 4.38875
rtoes 62.4572
lfemur -48.0221 -10.1738 -5.63451
ltibia 34.4789
lfoot 6.0452 8.25323
ltoes -2.18448
301
root -3.73225 17.3956 17.4721 440.868 -81.6869 296.753
lowerback 1.4324 6.91128 10.1014
upperback -7.28573 9.85573 5.82782
thorax -7.93995 4.22265 -0.0800664
lowerneck -8.45811 -9.07115 -12.2404
upperneck 25.5083 -13.7877 9.22574
head 11.1404 -6.73411 3.55002
rclavicle -5.70264e-014 -1.90833e-014
rhumerus 197.094 -111.006 75.789
rradius 7.57638
rwrist 46.9416
rhand -2.81163 12.123
rfingers 7.12502
rthumb 22.8947 -16.5378
lclavicle -5.70264e-014 -1.90833e-014
lhumerus 6.35776 -2.29626 40.2454
lradius 35.4993
lwrist -5.94011
lhand 8.48214 13.7707
lfingers 7.12502
lthumb 33.6853 40.6238
rfemur -37.1966 24.0997 -3.24946
rtibia 18.5423
rfoot -76.9096 9.3618
rtoes 62.0621
lfemur -47.0329 -7.68896 -8.1675
ltibia 36.3249
lfoot 2.10461 4.22392
ltoes -1.60008
